<svg width="60" height="60" viewBox="0 0 60 60" fill="none" xmlns="http://www.w3.org/2000/svg">
<path fill-rule="evenodd" clip-rule="evenodd" d="M0 17.5847C0 17.5847 0.0194893 9.81295 0.0194893 7.42514C0.0194893 3.05681 1.03122 0.306069 7.13735 0.306069C13.2435 0.306069 49.4775 0 53.768 0C59.0484 0 59.9172 3.52409 59.9172 7.42591C59.9172 9.47262 60 17.0411 60 17.0411L0 17.5847ZM15.1752 24.685C21.3438 24.685 21.4989 33.9988 15.6023 33.9988C8.60947 33.9988 9.12428 24.685 15.1752 24.685ZM15.6023 47.9098C8.60947 47.9098 9.12346 38.5961 15.1752 38.5961C21.3438 38.5961 21.4989 47.9098 15.6023 47.9098ZM30.2456 24.685C36.4143 24.685 36.5694 33.9988 30.6727 33.9988C23.6807 33.9988 24.1947 24.685 30.2456 24.685ZM30.6735 47.9098C23.6807 47.9098 24.1947 38.5961 30.2464 38.5961C36.4143 38.5961 36.5702 47.9098 30.6735 47.9098ZM45.3209 24.685C51.4896 24.685 51.6439 33.9988 45.748 33.9988C38.7552 33.9988 39.27 24.685 45.3209 24.685ZM5.57022 22.0262L5.92018 53.2883C5.92018 53.2883 28.1515 52.6161 34.2536 52.6161C46.0728 52.6161 42.263 40.8912 42.263 40.8912L54.9998 40.5415L55.1183 22.0285H59.4007L59.8092 59.4572L0.681256 60L0.863954 22.027H5.57022V22.0262Z" fill="black"/>
</svg>
