<svg fill="none" xmlns="http://www.w3.org/2000/svg" viewBox="0 0 42 42"><path d="M20.889 12.37c-5.185 0-9.482 4.223-9.482 9.482a9.453 9.453 0 0 0 9.482 9.482c5.26 0 9.481-4.297 9.481-9.482s-4.296-9.481-9.481-9.481Zm0 15.556c-3.333 0-6.074-2.74-6.074-6.074 0-3.333 2.74-6.074 6.074-6.074 3.333 0 6.074 2.74 6.074 6.074 0 3.333-2.74 6.074-6.074 6.074ZM30.74 14.296a2.148 2.148 0 1 0 0-4.296 2.148 2.148 0 0 0 0 4.296Z" fill="#fff"/><path d="M36.296 6.593c-1.926-2-4.666-3.037-7.777-3.037h-15.26c-6.444 0-10.74 4.296-10.74 10.74v15.186c0 3.185 1.037 5.925 3.11 7.925 2 1.926 4.667 2.89 7.704 2.89h15.111c3.186 0 5.852-1.038 7.778-2.89 2-1.925 3.037-4.666 3.037-7.851v-15.26c0-3.11-1.037-5.777-2.963-7.703ZM36 29.556c0 2.296-.815 4.148-2.148 5.407-1.333 1.26-3.185 1.926-5.408 1.926h-15.11c-2.223 0-4.075-.667-5.408-1.926-1.333-1.333-2-3.185-2-5.481V14.296c0-2.222.667-4.074 2-5.407 1.26-1.26 3.185-1.926 5.407-1.926h15.26c2.222 0 4.074.667 5.407 2 1.26 1.333 2 3.185 2 5.333v15.26Z" fill="#fff"/></svg>