<svg fill="none" xmlns="http://www.w3.org/2000/svg" viewBox="0 0 42 42"><path d="M38.063 7.875H3.833a1.024 1.024 0 0 0-.276 0l-.223.092a.853.853 0 0 0-.197.131.88.88 0 0 0-.197.184l-.079.079a.473.473 0 0 0 0 .118c-.043.08-.078.163-.105.25-.055.104-.099.214-.131.327v23.757a1.312 1.312 0 0 0 1.313 1.312h34.124a1.312 1.312 0 0 0 1.313-1.313V9.189a1.313 1.313 0 0 0-1.313-1.313ZM21 19.438 8.137 10.5h27.419L21 19.438ZM5.25 31.5V11.694l15.002 10.382c.076.045.155.084.236.118h.105c.13.06.266.1.407.119.187-.005.37-.05.538-.132h.092l15.12-9.332V31.5H5.25Z" fill="#fff"/></svg>