<svg fill="none" xmlns="http://www.w3.org/2000/svg" viewBox="0 0 60 50"><path d="M36.094 48.583c.042.387.256.747.601 1.01.344.261.794.407 1.26.407h15.337c.467 0 .917-.145 1.261-.408.345-.262.56-.622.602-1.009l2.004-18.375H34.09l2.005 18.375ZM58.12 20.833h-.62l-2.072-5.18a1.62 1.62 0 0 0-.684-.774 2.143 2.143 0 0 0-1.098-.296H37.602c-.394 0-.778.104-1.098.296a1.62 1.62 0 0 0-.684.775l-2.072 5.18h-.627c-.246 0-.49.04-.717.118a1.935 1.935 0 0 0-.608.338 1.578 1.578 0 0 0-.406.507 1.34 1.34 0 0 0-.142.597v3.129c0 .204.048.407.142.597.095.19.232.361.407.506.174.145.38.26.607.339.227.078.471.118.717.118H58.12c.247 0 .491-.04.72-.119a1.94 1.94 0 0 0 .61-.34c.174-.145.312-.318.407-.508.094-.19.143-.394.143-.6V22.4c0-.206-.049-.41-.143-.6a1.582 1.582 0 0 0-.408-.508 1.943 1.943 0 0 0-.61-.34 2.213 2.213 0 0 0-.72-.119ZM0 40.085v.521c0 .687.161 1.367.477 2.002a5.275 5.275 0 0 0 1.36 1.697c.583.485 1.275.87 2.036 1.133a7.374 7.374 0 0 0 2.402.397H32.04l-.637-5.75H0ZM30.252 29.533c-.835-.413-1.527-1-2.01-1.703a4.099 4.099 0 0 1-.74-2.307v-3.125c0-1.157.512-2.273 1.438-3.136H0V36.96h31.065l-.813-7.427Zm-7.95-.719-3.125 5.209c-.156.259-.395.477-.691.63a2.167 2.167 0 0 1-.985.234 2.091 2.091 0 0 1-.837-.166 1.87 1.87 0 0 1-.583-.37 1.52 1.52 0 0 1-.366-.53 1.317 1.317 0 0 1 .099-1.194l1.775-2.948h-3.213c-.32 0-.635-.067-.915-.196a1.78 1.78 0 0 1-.684-.543 1.389 1.389 0 0 1-.282-.751 1.349 1.349 0 0 1 .193-.77l3.126-5.209c.11-.184.261-.35.448-.485a2 2 0 0 1 .636-.304 2.23 2.23 0 0 1 1.437.082c.221.092.418.22.58.375.163.155.286.336.364.531a1.323 1.323 0 0 1-.102 1.197L17.4 26.554h3.226c.319.001.632.07.91.2s.512.317.68.543c.167.226.263.484.278.75.015.265-.052.53-.193.767ZM32.265 14.668c.372-.934 1.088-1.747 2.047-2.323.958-.576 2.11-.886 3.291-.885h4.863a10.187 10.187 0 0 0-2.075-1.562H4.6c-1.244.712-2.29 1.637-3.071 2.713C.75 13.687.254 14.889.075 16.137h31.603l.587-1.469ZM41.249 3.126c0-.83-.396-1.624-1.099-2.21C39.447.328 38.492 0 37.498 0H7.497c-.493 0-.98.08-1.436.238a3.873 3.873 0 0 0-1.217.678c-.348.29-.624.634-.813 1.014a2.68 2.68 0 0 0-.285 1.196V6.77h37.503V3.126Z" fill="#000"/></svg>